<svg xmlns="http://www.w3.org/2000/svg" xmlns:xlink="http://www.w3.org/1999/xlink" viewBox="0 0 213 213">
  <defs>
    <path id="a" d="M.0767 213H161.593V.757H.0767V213Z"/>
  </defs>
  <g fill="#fff" fill-rule="evenodd" transform="translate(26 -1)">
    <mask id="b">
      <use xlink:href="#a"/>
    </mask>
    <path d="M25.9627 46.805c2.788-2.539 6.073-2.688 9.807-.448-3.236 2.887-6.521 3.037-9.807.448m-3.136-10.255h26.234c.05-.846.05-2.141.448-3.584 1.295-4.182 5.078-6.92 9.011-8.413-4.729-4.879-12.744-2.29-12.744 3.036v.399l-.05.099v.05c0 .05 0 .1-.05.149v.1l-.049.149h-.05v.1l-.05.05c0 .049-.05.099-.05.149l-.05.05v.05l-.049.049-.05.05-.05.1-.05.049-.049.05v.05h-.05v.05h-.05v.05l-.05.049h-.05v.05l-.049.05h-.05v.05h-.05l-.05.05-.049.049-.05.05h-.05v.05h-.05l-.05.05-.049.049h-.1v.05h-.1v.05h-.049l-.05.05c-.349.149-.747.249-1.145.249-3.783 0-3.584-5.576.099-5.377.498-5.625-7.218-9.906-7.218-9.906s-7.616 4.032-7.168 9.906h.099c1.544 0 2.788 1.195 2.788 2.688 0 1.444-1.244 2.689-2.788 2.689-.398 0-.796-.1-1.145-.249l-.049-.05h-.05l-.05-.05h-.05l-.05-.05h-.049l-.05-.049h-.05v-.05h-.05v-.05h-.049l-.05-.05h-.05v-.049l-.05-.05h-.05l-.049-.05-.05-.05-.05-.05-.05-.049-.05-.05v-.05h-.049l-.05-.05v-.05l-.05-.049-.05-.05v-.05h-.049v-.05l-.05-.099-.05-.05v-.05l-.05-.05v-.049h-.05v-.05l-.049-.1v-.049l-.05-.05v-.15l-.05-.049v-.15h-.05v-.448h-.049v-.05c0-5.326-8.015-7.915-12.695-3.036 4.978 1.891 9.658 5.774 9.459 11.997m27.33 65.213c8.91-3.385 13.241-10.055 13.042-20.161 4.829 12.147 1.494 21.207-10.006 27.181-1.394-1.793-2.389-4.132-3.036-7.02M112.9307.757c.398 5.476-1.593 11.649-4.829 17.424l-44.056 35.245c-2.091-5.128-1.793-11.002 5.276-17.672 19.564-15.482 21.207-16.179 43.609-34.997m30.267 72.681c3.036 16.029-7.368 23.248-13.242 28.226-8.264.697-15.283 2.34-21.655 4.381 3.684-9.558 11.151-12.147 18.021-17.523 16.129-12.595-5.825-28.625 15.88-44.007-4.928 10.056-2.688 18.469.996 28.923M13.0697 184.599c5.774-.298 8.114.299 10.902 3.883-1.643 2.29-4.729 3.336-4.729 3.336-.897-5.327-2.29-5.327-6.173-7.219m2.29-121.267c-3.734 1.593-12.595.15-15.283-7.218 5.625 5.924 11.549 4.779 15.78 2.937 1.793-.647 5.427-.647 8.613-.597 3.982.05 7.666-.299 9.757 2.987 0 0-7.318-.747-12.197 1.792-1.493-1.095-4.331-.647-6.67.099m74.721 139.686c2.141-4.629 3.584-6.222 7.617-6.919 1.095 2.24.597 5.127.597 5.127-4.53-1.543-5.127-.448-8.214 1.792m-59.289-27.28c1.244-2.887 2.339-4.779 2.339-4.779 10.903 3.684 23.149 3.535 32.906 1.295-.398 2.19-.846 4.231-2.29 5.774-2.937-.448-4.431-.647-4.431-.647.349 2.788-.298 4.928-1.842 6.521-3.634-2.389-5.475-3.634-5.475-3.634.298 2.041.149 4.082-.498 6.123-5.227-2.688-6.671-4.131-7.567-3.584l-.05-.05c-2.29 3.037-5.974 8.065-9.856 13.939 5.824 3.037 9.408 7.617 6.67 13.043-3.236-7.866-6.222-2.091-9.16-4.182-6.919-5.028-6.023 1.195-9.956 2.191-2.887-.548-5.028-.15-5.874 5.177-3.982-4.68-2.389-8.513 1.095-12.296-3.833-.05-4.43-1.145-5.824-3.087-1.195-2.937-1.842-3.285-5.526-4.38 4.331-2.937 6.621-3.734 10.554-.498 5.127 4.53 14.685-8.861 18.021-14.984l-1.892-.996c-.398-.249-.846-.597-1.344-.946m95.829-38.829c-7.368 3.883-11.251 6.372-20.311 12.346 13.939 30.117 53.913 19.813 55.257-13.192.547-12.844-7.467-25.439-21.257-29.969-15.979-4.231-33.751 3.983-48.387 9.957-.946.398-1.842.746-2.738 1.095-2.937.398-3.385-3.037-.796-4.032 8.96-3.386 14.287-8.563 14.834-14.686-2.489.448-8.164 2.34-13.341 2.589-3.086-.299-2.539-3.734-.548-4.033 16.876-3.833 27.38-13.192 29.371-27.28-7.367 4.381-17.324 9.061-24.343 10.106-2.09.348-3.634-3.087-.697-4.132 17.922-4.281 31.014-19.415 32.956-40.372-9.807 11.2-21.207 19.812-33.404 24.94-2.439.647-3.534-2.688-1.344-3.833 20.112-13.889 35.245-30.217 35.494-50.08-12.943 11.051-31.76 27.877-57.099 46.496-2.041 1.493-3.684 3.086-5.227 4.48-5.575 5.227-6.322 12.246-3.186 17.523 12.296 14.038 6.671 31.262-9.06 38.232-6.023-6.621-7.467-17.573-1.244-32.557 4.679-10.205 7.965-18.12 3.783-27.728-.398-.946-.846-1.842-1.344-2.688 6.173-1.992 10.205-11.5 7.218-18.519 0-1.145-4.381 7.666-13.69 8.264 0 0-8.811-.05-25.488-.05-.298 1.145-1.742 3.285-3.833 4.48-1.095.647-1.991 1.294-4.829 1.294-1.941-.049-3.634 0-6.272 0-1.045 8.364 6.87 11.998 6.87 11.998.249-2.29 2.14-2.24 3.136-2.34 4.48.05 8.065.1 11.649.05 5.077.149 9.458 4.729 9.408 9.259-2.489-1.643-5.973-1.145-9.06-.448-7.517 2.539-8.911 1.892-12.097.1 1.295 4.679 3.684 7.865 7.219 9.458-.896-1.444.348-3.086 1.742-3.136h6.92c3.235.597 2.389 3.733-.598 7.367-13.092 16.08-29.769 33.503-24.343 59.588 4.032 19.266 28.575 42.364 61.828 29.322 10.703-.249 15.184 11.698 16.578 14.585 2.588-1.493 2.588-2.389 3.683-2.19.15.05.498.349.896.797 4.082 5.525 9.857 14.038 10.156 19.564.149 2.389-1.942 4.231-4.132 4.729-4.729 1.742-5.128 3.883-4.53 8.512 2.738-2.439 3.285-2.787 6.521-2.538 2.39-.299 4.729-.498 6.621-3.485 1.693 4.331 4.331 7.168 10.404 5.974-4.331-2.888-3.634-4.73-1.842-6.771.946-3.484-4.978-5.376 2.738-8.711 3.286-1.394-.249-7.517 8.264-6.82-3.534-4.381-8.662-4.182-14.088.697-3.534-5.725-7.816-12.545-10.454-16.826 1.095-.697 2.838-1.743 5.227-3.734-1.593-1.444-3.933-2.838-5.924-3.385 0 0 1.693-1.494 5.376-3.883-.796-2.041-2.24-2.489-4.928-3.286 0 0 .398-1.194 2.738-3.086-1.145-2.638-4.679-5.227 2.638-11.151 7.517-5.227 22.85-14.636 26.136-13.093 3.733 1.793 2.24 5.526.448 6.771-2.788 1.344-5.178 0-5.675-2.539" mask="url(#b)"/>
  </g>
</svg>
